<mxfile host="app.diagrams.net" modified="2023-08-27T20:55:18.818Z" agent="Mozilla/5.0 (Windows NT 10.0; Win64; x64) AppleWebKit/537.36 (KHTML, like Gecko) Chrome/116.0.0.0 Safari/537.36" etag="cwogohBo4XeP3cYPmuKY" version="21.6.9" type="device">
  <diagram name="Страница — 1" id="gZoW1q4wPC_Zm2y75siH">
    <mxGraphModel dx="2100" dy="1084" grid="1" gridSize="10" guides="1" tooltips="1" connect="1" arrows="1" fold="1" page="1" pageScale="1" pageWidth="827" pageHeight="1169" math="0" shadow="0">
      <root>
        <mxCell id="0" />
        <mxCell id="1" parent="0" />
        <mxCell id="9S-NBadtomxUDHc-x5ar-1" value="Application" style="swimlane;fontStyle=0;childLayout=stackLayout;horizontal=1;startSize=30;horizontalStack=0;resizeParent=1;resizeParentMax=0;resizeLast=0;collapsible=1;marginBottom=0;" parent="1" vertex="1">
          <mxGeometry x="139" y="285" width="250" height="330" as="geometry">
            <mxRectangle x="590" y="750" width="70" height="30" as="alternateBounds" />
          </mxGeometry>
        </mxCell>
        <mxCell id="9RPVtVGObRyJ0dVKUxy2-21" value="+ id" style="text;align=left;verticalAlign=middle;spacingLeft=4;spacingRight=4;overflow=hidden;points=[[0,0.5],[1,0.5]];portConstraint=eastwest;rotatable=0;fillColor=default;" parent="9S-NBadtomxUDHc-x5ar-1" vertex="1">
          <mxGeometry y="30" width="250" height="30" as="geometry" />
        </mxCell>
        <mxCell id="9RPVtVGObRyJ0dVKUxy2-13" value="+ license: LicenseId" style="text;align=left;verticalAlign=middle;spacingLeft=4;spacingRight=4;overflow=hidden;points=[[0,0.5],[1,0.5]];portConstraint=eastwest;rotatable=0;fillColor=default;" parent="9S-NBadtomxUDHc-x5ar-1" vertex="1">
          <mxGeometry y="60" width="250" height="30" as="geometry" />
        </mxCell>
        <mxCell id="9RPVtVGObRyJ0dVKUxy2-14" value="+ created_at: Date" style="text;align=left;verticalAlign=middle;spacingLeft=4;spacingRight=4;overflow=hidden;points=[[0,0.5],[1,0.5]];portConstraint=eastwest;rotatable=0;fillColor=default;" parent="9S-NBadtomxUDHc-x5ar-1" vertex="1">
          <mxGeometry y="90" width="250" height="30" as="geometry" />
        </mxCell>
        <mxCell id="9S-NBadtomxUDHc-x5ar-2" value="+ updated_at: Date" style="text;align=left;verticalAlign=middle;spacingLeft=4;spacingRight=4;overflow=hidden;points=[[0,0.5],[1,0.5]];portConstraint=eastwest;rotatable=0;fillColor=default;" parent="9S-NBadtomxUDHc-x5ar-1" vertex="1">
          <mxGeometry y="120" width="250" height="30" as="geometry" />
        </mxCell>
        <mxCell id="9RPVtVGObRyJ0dVKUxy2-87" value="+ number:  number // номер заявки" style="text;strokeColor=none;fillColor=default;align=left;verticalAlign=middle;spacingLeft=4;spacingRight=4;overflow=hidden;points=[[0,0.5],[1,0.5]];portConstraint=eastwest;rotatable=0;" parent="9S-NBadtomxUDHc-x5ar-1" vertex="1">
          <mxGeometry y="150" width="250" height="30" as="geometry" />
        </mxCell>
        <mxCell id="9S-NBadtomxUDHc-x5ar-3" value="+ target: ApplicationTarget" style="text;strokeColor=none;fillColor=default;align=left;verticalAlign=middle;spacingLeft=4;spacingRight=4;overflow=hidden;points=[[0,0.5],[1,0.5]];portConstraint=eastwest;rotatable=0;" parent="9S-NBadtomxUDHc-x5ar-1" vertex="1">
          <mxGeometry y="180" width="250" height="30" as="geometry" />
        </mxCell>
        <mxCell id="9RPVtVGObRyJ0dVKUxy2-15" value="+ description: string" style="text;strokeColor=none;fillColor=default;align=left;verticalAlign=middle;spacingLeft=4;spacingRight=4;overflow=hidden;points=[[0,0.5],[1,0.5]];portConstraint=eastwest;rotatable=0;" parent="9S-NBadtomxUDHc-x5ar-1" vertex="1">
          <mxGeometry y="210" width="250" height="30" as="geometry" />
        </mxCell>
        <mxCell id="9RPVtVGObRyJ0dVKUxy2-5" value="+ wallet: string" style="text;strokeColor=none;fillColor=default;align=left;verticalAlign=middle;spacingLeft=4;spacingRight=4;overflow=hidden;points=[[0,0.5],[1,0.5]];portConstraint=eastwest;rotatable=0;" parent="9S-NBadtomxUDHc-x5ar-1" vertex="1">
          <mxGeometry y="240" width="250" height="30" as="geometry" />
        </mxCell>
        <mxCell id="9RPVtVGObRyJ0dVKUxy2-6" value="+ state: ApplicationStatesEnum" style="text;strokeColor=none;fillColor=default;align=left;verticalAlign=middle;spacingLeft=4;spacingRight=4;overflow=hidden;points=[[0,0.5],[1,0.5]];portConstraint=eastwest;rotatable=0;" parent="9S-NBadtomxUDHc-x5ar-1" vertex="1">
          <mxGeometry y="270" width="250" height="30" as="geometry" />
        </mxCell>
        <mxCell id="9RPVtVGObRyJ0dVKUxy2-11" value="+ adminComment?: string" style="text;strokeColor=none;fillColor=default;align=left;verticalAlign=middle;spacingLeft=4;spacingRight=4;overflow=hidden;points=[[0,0.5],[1,0.5]];portConstraint=eastwest;rotatable=0;" parent="9S-NBadtomxUDHc-x5ar-1" vertex="1">
          <mxGeometry y="300" width="250" height="30" as="geometry" />
        </mxCell>
        <mxCell id="9S-NBadtomxUDHc-x5ar-4" value="Report" style="swimlane;fontStyle=0;childLayout=stackLayout;horizontal=1;startSize=30;horizontalStack=0;resizeParent=1;resizeParentMax=0;resizeLast=0;collapsible=1;marginBottom=0;" parent="1" vertex="1">
          <mxGeometry x="429" y="285" width="260" height="300" as="geometry">
            <mxRectangle x="590" y="750" width="70" height="30" as="alternateBounds" />
          </mxGeometry>
        </mxCell>
        <mxCell id="9S-NBadtomxUDHc-x5ar-5" value="+ id" style="text;align=left;verticalAlign=middle;spacingLeft=4;spacingRight=4;overflow=hidden;points=[[0,0.5],[1,0.5]];portConstraint=eastwest;rotatable=0;fillColor=default;" parent="9S-NBadtomxUDHc-x5ar-4" vertex="1">
          <mxGeometry y="30" width="260" height="30" as="geometry" />
        </mxCell>
        <mxCell id="9RPVtVGObRyJ0dVKUxy2-20" value="+ license: LicenseId" style="text;align=left;verticalAlign=middle;spacingLeft=4;spacingRight=4;overflow=hidden;points=[[0,0.5],[1,0.5]];portConstraint=eastwest;rotatable=0;fillColor=default;" parent="9S-NBadtomxUDHc-x5ar-4" vertex="1">
          <mxGeometry y="60" width="260" height="30" as="geometry" />
        </mxCell>
        <mxCell id="9S-NBadtomxUDHc-x5ar-6" value="+ created_at: Date" style="text;strokeColor=none;fillColor=default;align=left;verticalAlign=middle;spacingLeft=4;spacingRight=4;overflow=hidden;points=[[0,0.5],[1,0.5]];portConstraint=eastwest;rotatable=0;" parent="9S-NBadtomxUDHc-x5ar-4" vertex="1">
          <mxGeometry y="90" width="260" height="30" as="geometry" />
        </mxCell>
        <mxCell id="9RPVtVGObRyJ0dVKUxy2-16" value="+ updated_at: Date" style="text;strokeColor=none;fillColor=default;align=left;verticalAlign=middle;spacingLeft=4;spacingRight=4;overflow=hidden;points=[[0,0.5],[1,0.5]];portConstraint=eastwest;rotatable=0;" parent="9S-NBadtomxUDHc-x5ar-4" vertex="1">
          <mxGeometry y="120" width="260" height="30" as="geometry" />
        </mxCell>
        <mxCell id="9RPVtVGObRyJ0dVKUxy2-88" value="+ number: number //номер отчета" style="text;strokeColor=none;fillColor=default;align=left;verticalAlign=middle;spacingLeft=4;spacingRight=4;overflow=hidden;points=[[0,0.5],[1,0.5]];portConstraint=eastwest;rotatable=0;" parent="9S-NBadtomxUDHc-x5ar-4" vertex="1">
          <mxGeometry y="150" width="260" height="30" as="geometry" />
        </mxCell>
        <mxCell id="9RPVtVGObRyJ0dVKUxy2-17" value="+ description: Date" style="text;strokeColor=none;fillColor=default;align=left;verticalAlign=middle;spacingLeft=4;spacingRight=4;overflow=hidden;points=[[0,0.5],[1,0.5]];portConstraint=eastwest;rotatable=0;" parent="9S-NBadtomxUDHc-x5ar-4" vertex="1">
          <mxGeometry y="180" width="260" height="30" as="geometry" />
        </mxCell>
        <mxCell id="9RPVtVGObRyJ0dVKUxy2-18" value="+ images: string[]" style="text;strokeColor=none;fillColor=default;align=left;verticalAlign=middle;spacingLeft=4;spacingRight=4;overflow=hidden;points=[[0,0.5],[1,0.5]];portConstraint=eastwest;rotatable=0;" parent="9S-NBadtomxUDHc-x5ar-4" vertex="1">
          <mxGeometry y="210" width="260" height="30" as="geometry" />
        </mxCell>
        <mxCell id="9RPVtVGObRyJ0dVKUxy2-19" value="+ state: ApplicationAndReportStatesEnum" style="text;strokeColor=none;fillColor=default;align=left;verticalAlign=middle;spacingLeft=4;spacingRight=4;overflow=hidden;points=[[0,0.5],[1,0.5]];portConstraint=eastwest;rotatable=0;" parent="9S-NBadtomxUDHc-x5ar-4" vertex="1">
          <mxGeometry y="240" width="260" height="30" as="geometry" />
        </mxCell>
        <mxCell id="9RPVtVGObRyJ0dVKUxy2-23" value="+ adminComment?: string" style="text;strokeColor=none;fillColor=default;align=left;verticalAlign=middle;spacingLeft=4;spacingRight=4;overflow=hidden;points=[[0,0.5],[1,0.5]];portConstraint=eastwest;rotatable=0;" parent="9S-NBadtomxUDHc-x5ar-4" vertex="1">
          <mxGeometry y="270" width="260" height="30" as="geometry" />
        </mxCell>
        <mxCell id="9RPVtVGObRyJ0dVKUxy2-1" value="BD CLASSES" style="text;html=1;strokeColor=none;fillColor=none;align=center;verticalAlign=middle;whiteSpace=wrap;rounded=0;fontStyle=1;fontSize=14;" parent="1" vertex="1">
          <mxGeometry x="361" y="30" width="106" height="30" as="geometry" />
        </mxCell>
        <mxCell id="9RPVtVGObRyJ0dVKUxy2-2" value="ApplicationTargets" style="swimlane;fontStyle=0;childLayout=stackLayout;horizontal=1;startSize=30;horizontalStack=0;resizeParent=1;resizeParentMax=0;resizeLast=0;collapsible=1;marginBottom=0;" parent="1" vertex="1">
          <mxGeometry x="50" y="115" width="200" height="90" as="geometry">
            <mxRectangle x="590" y="750" width="70" height="30" as="alternateBounds" />
          </mxGeometry>
        </mxCell>
        <mxCell id="9RPVtVGObRyJ0dVKUxy2-22" value="+ id" style="text;align=left;verticalAlign=middle;spacingLeft=4;spacingRight=4;overflow=hidden;points=[[0,0.5],[1,0.5]];portConstraint=eastwest;rotatable=0;fillColor=default;" parent="9RPVtVGObRyJ0dVKUxy2-2" vertex="1">
          <mxGeometry y="30" width="200" height="30" as="geometry" />
        </mxCell>
        <mxCell id="9RPVtVGObRyJ0dVKUxy2-3" value="+ name: string" style="text;align=left;verticalAlign=middle;spacingLeft=4;spacingRight=4;overflow=hidden;points=[[0,0.5],[1,0.5]];portConstraint=eastwest;rotatable=0;fillColor=default;" parent="9RPVtVGObRyJ0dVKUxy2-2" vertex="1">
          <mxGeometry y="60" width="200" height="30" as="geometry" />
        </mxCell>
        <mxCell id="9RPVtVGObRyJ0dVKUxy2-7" value="ApplicationStatesEnum" style="swimlane;fontStyle=0;childLayout=stackLayout;horizontal=1;startSize=30;horizontalStack=0;resizeParent=1;resizeParentMax=0;resizeLast=0;collapsible=1;marginBottom=0;" parent="1" vertex="1">
          <mxGeometry x="290" y="115" width="200" height="120" as="geometry">
            <mxRectangle x="590" y="750" width="70" height="30" as="alternateBounds" />
          </mxGeometry>
        </mxCell>
        <mxCell id="9RPVtVGObRyJ0dVKUxy2-8" value="+ PENDING" style="text;align=left;verticalAlign=middle;spacingLeft=4;spacingRight=4;overflow=hidden;points=[[0,0.5],[1,0.5]];portConstraint=eastwest;rotatable=0;fillColor=default;" parent="9RPVtVGObRyJ0dVKUxy2-7" vertex="1">
          <mxGeometry y="30" width="200" height="30" as="geometry" />
        </mxCell>
        <mxCell id="9RPVtVGObRyJ0dVKUxy2-9" value="+ CONFIRMED" style="text;align=left;verticalAlign=middle;spacingLeft=4;spacingRight=4;overflow=hidden;points=[[0,0.5],[1,0.5]];portConstraint=eastwest;rotatable=0;fillColor=default;" parent="9RPVtVGObRyJ0dVKUxy2-7" vertex="1">
          <mxGeometry y="60" width="200" height="30" as="geometry" />
        </mxCell>
        <mxCell id="9RPVtVGObRyJ0dVKUxy2-10" value="+ REJECTED" style="text;align=left;verticalAlign=middle;spacingLeft=4;spacingRight=4;overflow=hidden;points=[[0,0.5],[1,0.5]];portConstraint=eastwest;rotatable=0;fillColor=default;" parent="9RPVtVGObRyJ0dVKUxy2-7" vertex="1">
          <mxGeometry y="90" width="200" height="30" as="geometry" />
        </mxCell>
        <mxCell id="9RPVtVGObRyJ0dVKUxy2-24" value="REQUESTS" style="text;html=1;strokeColor=none;fillColor=none;align=center;verticalAlign=middle;whiteSpace=wrap;rounded=0;fontStyle=1;fontSize=14;" parent="1" vertex="1">
          <mxGeometry x="361" y="660" width="106" height="30" as="geometry" />
        </mxCell>
        <mxCell id="9RPVtVGObRyJ0dVKUxy2-25" value="User requests from Dash" style="text;html=1;strokeColor=none;fillColor=none;align=center;verticalAlign=middle;whiteSpace=wrap;rounded=0;fontStyle=1" parent="1" vertex="1">
          <mxGeometry x="100" y="750" width="180" height="30" as="geometry" />
        </mxCell>
        <mxCell id="9RPVtVGObRyJ0dVKUxy2-26" value="Admin Requests from manager" style="text;html=1;strokeColor=none;fillColor=none;align=center;verticalAlign=middle;whiteSpace=wrap;rounded=0;fontStyle=1" parent="1" vertex="1">
          <mxGeometry x="570" y="750" width="190" height="30" as="geometry" />
        </mxCell>
        <mxCell id="9RPVtVGObRyJ0dVKUxy2-27" value="POST /user/binanceId { binanceId: string }" style="text;html=1;strokeColor=none;fillColor=none;align=left;verticalAlign=middle;whiteSpace=wrap;rounded=0;" parent="1" vertex="1">
          <mxGeometry x="60" y="800" width="290" height="30" as="geometry" />
        </mxCell>
        <mxCell id="9RPVtVGObRyJ0dVKUxy2-28" value="&lt;b&gt;ApiUrlPrefix = &#39;/api&#39;&lt;/b&gt;" style="text;html=1;strokeColor=none;fillColor=none;align=left;verticalAlign=middle;whiteSpace=wrap;rounded=0;" parent="1" vertex="1">
          <mxGeometry x="347" y="700" width="120" height="30" as="geometry" />
        </mxCell>
        <mxCell id="9RPVtVGObRyJ0dVKUxy2-30" value="GET /user/applications =&amp;gt; ShortApplication[]" style="text;html=1;strokeColor=none;fillColor=none;align=left;verticalAlign=middle;whiteSpace=wrap;rounded=0;" parent="1" vertex="1">
          <mxGeometry x="60" y="850" width="290" height="30" as="geometry" />
        </mxCell>
        <mxCell id="9RPVtVGObRyJ0dVKUxy2-31" value="GET /user/applications/{id} =&amp;gt; Application" style="text;html=1;strokeColor=none;fillColor=none;align=left;verticalAlign=middle;whiteSpace=wrap;rounded=0;" parent="1" vertex="1">
          <mxGeometry x="60" y="880" width="290" height="30" as="geometry" />
        </mxCell>
        <mxCell id="9RPVtVGObRyJ0dVKUxy2-32" value="POST /user/applications {ApplicationPayload} =&amp;gt; Application" style="text;html=1;strokeColor=none;fillColor=none;align=left;verticalAlign=middle;whiteSpace=wrap;rounded=0;" parent="1" vertex="1">
          <mxGeometry x="60" y="910" width="350" height="30" as="geometry" />
        </mxCell>
        <mxCell id="9RPVtVGObRyJ0dVKUxy2-34" value="GET /user/reports =&amp;gt; ShortReport[]" style="text;html=1;strokeColor=none;fillColor=none;align=left;verticalAlign=middle;whiteSpace=wrap;rounded=0;" parent="1" vertex="1">
          <mxGeometry x="60" y="970" width="290" height="30" as="geometry" />
        </mxCell>
        <mxCell id="9RPVtVGObRyJ0dVKUxy2-35" value="GET /user/reports/{id} =&amp;gt; Report" style="text;html=1;strokeColor=none;fillColor=none;align=left;verticalAlign=middle;whiteSpace=wrap;rounded=0;" parent="1" vertex="1">
          <mxGeometry x="60" y="1000" width="290" height="30" as="geometry" />
        </mxCell>
        <mxCell id="9RPVtVGObRyJ0dVKUxy2-36" value="POST /user/reports {ReportPayload} =&amp;gt; Report" style="text;html=1;strokeColor=none;fillColor=none;align=left;verticalAlign=middle;whiteSpace=wrap;rounded=0;" parent="1" vertex="1">
          <mxGeometry x="60" y="1030" width="290" height="30" as="geometry" />
        </mxCell>
        <mxCell id="9RPVtVGObRyJ0dVKUxy2-38" value="GET /admin/applications =&amp;gt; ShortApplication[]" style="text;html=1;strokeColor=none;fillColor=none;align=left;verticalAlign=middle;whiteSpace=wrap;rounded=0;" parent="1" vertex="1">
          <mxGeometry x="550" y="800" width="290" height="30" as="geometry" />
        </mxCell>
        <mxCell id="9RPVtVGObRyJ0dVKUxy2-39" value="GET /admin/applications/{id} =&amp;gt; Application" style="text;html=1;strokeColor=none;fillColor=none;align=left;verticalAlign=middle;whiteSpace=wrap;rounded=0;" parent="1" vertex="1">
          <mxGeometry x="550" y="830" width="290" height="30" as="geometry" />
        </mxCell>
        <mxCell id="9RPVtVGObRyJ0dVKUxy2-40" value="PUT /user/applications{id} {state: StatesEnum, comment: string} =&amp;gt; Application" style="text;html=1;strokeColor=none;fillColor=none;align=left;verticalAlign=middle;whiteSpace=wrap;rounded=0;" parent="1" vertex="1">
          <mxGeometry x="550" y="890" width="490" height="30" as="geometry" />
        </mxCell>
        <mxCell id="9RPVtVGObRyJ0dVKUxy2-41" value="GET /user/reports =&amp;gt; ShortReport[]" style="text;html=1;strokeColor=none;fillColor=none;align=left;verticalAlign=middle;whiteSpace=wrap;rounded=0;" parent="1" vertex="1">
          <mxGeometry x="550" y="960" width="290" height="30" as="geometry" />
        </mxCell>
        <mxCell id="9RPVtVGObRyJ0dVKUxy2-42" value="GET /user/reports/{id} =&amp;gt; Report" style="text;html=1;strokeColor=none;fillColor=none;align=left;verticalAlign=middle;whiteSpace=wrap;rounded=0;" parent="1" vertex="1">
          <mxGeometry x="550" y="990" width="290" height="30" as="geometry" />
        </mxCell>
        <mxCell id="9RPVtVGObRyJ0dVKUxy2-43" value="PUT /user/reports/{id} {state: StatesEnum, comment: string} =&amp;gt; Report" style="text;html=1;strokeColor=none;fillColor=none;align=left;verticalAlign=middle;whiteSpace=wrap;rounded=0;" parent="1" vertex="1">
          <mxGeometry x="550" y="1050" width="420" height="30" as="geometry" />
        </mxCell>
        <mxCell id="9RPVtVGObRyJ0dVKUxy2-44" value="LOGIC" style="text;html=1;strokeColor=none;fillColor=none;align=center;verticalAlign=middle;whiteSpace=wrap;rounded=0;fontStyle=1;fontSize=14;" parent="1" vertex="1">
          <mxGeometry x="412" y="1810" width="106" height="30" as="geometry" />
        </mxCell>
        <mxCell id="9RPVtVGObRyJ0dVKUxy2-45" value="&lt;b&gt;POST BinanceId:&lt;br&gt;&amp;nbsp;&lt;/b&gt;- пользователь может отправить &lt;b&gt;binanceId&lt;/b&gt;. Значение установится в &lt;b&gt;license.description &lt;/b&gt;в формате JsonToString:&amp;nbsp;&lt;br&gt;&amp;nbsp; { binanceId: binanceId }&lt;br&gt;&amp;nbsp;- на фронте значение будет получаться с JSON.parse(license.description).binanceId" style="text;html=1;strokeColor=none;fillColor=none;align=left;verticalAlign=top;whiteSpace=wrap;rounded=0;" parent="1" vertex="1">
          <mxGeometry x="91" y="1880" width="470" height="90" as="geometry" />
        </mxCell>
        <mxCell id="9RPVtVGObRyJ0dVKUxy2-46" value="&lt;b&gt;User. Post Application.&lt;br&gt;&amp;nbsp;&lt;/b&gt;- ограничение по успешным запросам в день &lt;b&gt;10.&lt;/b&gt;" style="text;html=1;strokeColor=none;fillColor=none;align=left;verticalAlign=top;whiteSpace=wrap;rounded=0;" parent="1" vertex="1">
          <mxGeometry x="80" y="2000" width="360" height="40" as="geometry" />
        </mxCell>
        <mxCell id="9RPVtVGObRyJ0dVKUxy2-47" value="INTERFACES" style="text;html=1;strokeColor=none;fillColor=none;align=center;verticalAlign=middle;whiteSpace=wrap;rounded=0;fontStyle=1;fontSize=14;" parent="1" vertex="1">
          <mxGeometry x="361" y="1240" width="106" height="30" as="geometry" />
        </mxCell>
        <mxCell id="9RPVtVGObRyJ0dVKUxy2-48" value="ShortApplicationUser" style="swimlane;fontStyle=0;childLayout=stackLayout;horizontal=1;startSize=30;horizontalStack=0;resizeParent=1;resizeParentMax=0;resizeLast=0;collapsible=1;marginBottom=0;" parent="1" vertex="1">
          <mxGeometry x="80" y="1280" width="250" height="240" as="geometry">
            <mxRectangle x="590" y="750" width="70" height="30" as="alternateBounds" />
          </mxGeometry>
        </mxCell>
        <mxCell id="9RPVtVGObRyJ0dVKUxy2-49" value="+ id" style="text;align=left;verticalAlign=middle;spacingLeft=4;spacingRight=4;overflow=hidden;points=[[0,0.5],[1,0.5]];portConstraint=eastwest;rotatable=0;fillColor=default;" parent="9RPVtVGObRyJ0dVKUxy2-48" vertex="1">
          <mxGeometry y="30" width="250" height="30" as="geometry" />
        </mxCell>
        <mxCell id="9RPVtVGObRyJ0dVKUxy2-51" value="+ created_at: Date" style="text;align=left;verticalAlign=middle;spacingLeft=4;spacingRight=4;overflow=hidden;points=[[0,0.5],[1,0.5]];portConstraint=eastwest;rotatable=0;fillColor=default;" parent="9RPVtVGObRyJ0dVKUxy2-48" vertex="1">
          <mxGeometry y="60" width="250" height="30" as="geometry" />
        </mxCell>
        <mxCell id="9RPVtVGObRyJ0dVKUxy2-52" value="+ updated_at: Date" style="text;align=left;verticalAlign=middle;spacingLeft=4;spacingRight=4;overflow=hidden;points=[[0,0.5],[1,0.5]];portConstraint=eastwest;rotatable=0;fillColor=default;" parent="9RPVtVGObRyJ0dVKUxy2-48" vertex="1">
          <mxGeometry y="90" width="250" height="30" as="geometry" />
        </mxCell>
        <mxCell id="9RPVtVGObRyJ0dVKUxy2-89" value="+ number: number" style="text;strokeColor=none;fillColor=default;align=left;verticalAlign=middle;spacingLeft=4;spacingRight=4;overflow=hidden;points=[[0,0.5],[1,0.5]];portConstraint=eastwest;rotatable=0;" parent="9RPVtVGObRyJ0dVKUxy2-48" vertex="1">
          <mxGeometry y="120" width="250" height="30" as="geometry" />
        </mxCell>
        <mxCell id="9RPVtVGObRyJ0dVKUxy2-53" value="+ target: ApplicationTarget" style="text;strokeColor=none;fillColor=default;align=left;verticalAlign=middle;spacingLeft=4;spacingRight=4;overflow=hidden;points=[[0,0.5],[1,0.5]];portConstraint=eastwest;rotatable=0;" parent="9RPVtVGObRyJ0dVKUxy2-48" vertex="1">
          <mxGeometry y="150" width="250" height="30" as="geometry" />
        </mxCell>
        <mxCell id="9RPVtVGObRyJ0dVKUxy2-56" value="+ state: ApplicationStatesEnum" style="text;strokeColor=none;fillColor=default;align=left;verticalAlign=middle;spacingLeft=4;spacingRight=4;overflow=hidden;points=[[0,0.5],[1,0.5]];portConstraint=eastwest;rotatable=0;" parent="9RPVtVGObRyJ0dVKUxy2-48" vertex="1">
          <mxGeometry y="180" width="250" height="30" as="geometry" />
        </mxCell>
        <mxCell id="9RPVtVGObRyJ0dVKUxy2-57" value="+ adminComment?: string" style="text;strokeColor=none;fillColor=default;align=left;verticalAlign=middle;spacingLeft=4;spacingRight=4;overflow=hidden;points=[[0,0.5],[1,0.5]];portConstraint=eastwest;rotatable=0;" parent="9RPVtVGObRyJ0dVKUxy2-48" vertex="1">
          <mxGeometry y="210" width="250" height="30" as="geometry" />
        </mxCell>
        <mxCell id="9RPVtVGObRyJ0dVKUxy2-58" value="ShortReportUser" style="swimlane;fontStyle=0;childLayout=stackLayout;horizontal=1;startSize=30;horizontalStack=0;resizeParent=1;resizeParentMax=0;resizeLast=0;collapsible=1;marginBottom=0;" parent="1" vertex="1">
          <mxGeometry x="370" y="1280" width="250" height="210" as="geometry">
            <mxRectangle x="590" y="750" width="70" height="30" as="alternateBounds" />
          </mxGeometry>
        </mxCell>
        <mxCell id="9RPVtVGObRyJ0dVKUxy2-59" value="+ id" style="text;align=left;verticalAlign=middle;spacingLeft=4;spacingRight=4;overflow=hidden;points=[[0,0.5],[1,0.5]];portConstraint=eastwest;rotatable=0;fillColor=default;" parent="9RPVtVGObRyJ0dVKUxy2-58" vertex="1">
          <mxGeometry y="30" width="250" height="30" as="geometry" />
        </mxCell>
        <mxCell id="9RPVtVGObRyJ0dVKUxy2-60" value="+ created_at: Date" style="text;align=left;verticalAlign=middle;spacingLeft=4;spacingRight=4;overflow=hidden;points=[[0,0.5],[1,0.5]];portConstraint=eastwest;rotatable=0;fillColor=default;" parent="9RPVtVGObRyJ0dVKUxy2-58" vertex="1">
          <mxGeometry y="60" width="250" height="30" as="geometry" />
        </mxCell>
        <mxCell id="9RPVtVGObRyJ0dVKUxy2-61" value="+ updated_at: Date" style="text;align=left;verticalAlign=middle;spacingLeft=4;spacingRight=4;overflow=hidden;points=[[0,0.5],[1,0.5]];portConstraint=eastwest;rotatable=0;fillColor=default;" parent="9RPVtVGObRyJ0dVKUxy2-58" vertex="1">
          <mxGeometry y="90" width="250" height="30" as="geometry" />
        </mxCell>
        <mxCell id="9RPVtVGObRyJ0dVKUxy2-92" value="+ number: number" style="text;strokeColor=none;fillColor=default;align=left;verticalAlign=middle;spacingLeft=4;spacingRight=4;overflow=hidden;points=[[0,0.5],[1,0.5]];portConstraint=eastwest;rotatable=0;" parent="9RPVtVGObRyJ0dVKUxy2-58" vertex="1">
          <mxGeometry y="120" width="250" height="30" as="geometry" />
        </mxCell>
        <mxCell id="9RPVtVGObRyJ0dVKUxy2-64" value="+ state: ApplicationAndReportStatesEnum" style="text;strokeColor=none;fillColor=default;align=left;verticalAlign=middle;spacingLeft=4;spacingRight=4;overflow=hidden;points=[[0,0.5],[1,0.5]];portConstraint=eastwest;rotatable=0;" parent="9RPVtVGObRyJ0dVKUxy2-58" vertex="1">
          <mxGeometry y="150" width="250" height="30" as="geometry" />
        </mxCell>
        <mxCell id="9RPVtVGObRyJ0dVKUxy2-65" value="+ adminComment?: string" style="text;strokeColor=none;fillColor=default;align=left;verticalAlign=middle;spacingLeft=4;spacingRight=4;overflow=hidden;points=[[0,0.5],[1,0.5]];portConstraint=eastwest;rotatable=0;" parent="9RPVtVGObRyJ0dVKUxy2-58" vertex="1">
          <mxGeometry y="180" width="250" height="30" as="geometry" />
        </mxCell>
        <mxCell id="9RPVtVGObRyJ0dVKUxy2-66" value="ShortReportAdmin" style="swimlane;fontStyle=0;childLayout=stackLayout;horizontal=1;startSize=30;horizontalStack=0;resizeParent=1;resizeParentMax=0;resizeLast=0;collapsible=1;marginBottom=0;" parent="1" vertex="1">
          <mxGeometry x="730" y="1270" width="250" height="240" as="geometry">
            <mxRectangle x="590" y="750" width="70" height="30" as="alternateBounds" />
          </mxGeometry>
        </mxCell>
        <mxCell id="9RPVtVGObRyJ0dVKUxy2-67" value="+ id" style="text;align=left;verticalAlign=middle;spacingLeft=4;spacingRight=4;overflow=hidden;points=[[0,0.5],[1,0.5]];portConstraint=eastwest;rotatable=0;fillColor=default;" parent="9RPVtVGObRyJ0dVKUxy2-66" vertex="1">
          <mxGeometry y="30" width="250" height="30" as="geometry" />
        </mxCell>
        <mxCell id="9RPVtVGObRyJ0dVKUxy2-72" value="+ license: License" style="text;align=left;verticalAlign=middle;spacingLeft=4;spacingRight=4;overflow=hidden;points=[[0,0.5],[1,0.5]];portConstraint=eastwest;rotatable=0;fillColor=default;" parent="9RPVtVGObRyJ0dVKUxy2-66" vertex="1">
          <mxGeometry y="60" width="250" height="30" as="geometry" />
        </mxCell>
        <mxCell id="9RPVtVGObRyJ0dVKUxy2-68" value="+ created_at: Date" style="text;align=left;verticalAlign=middle;spacingLeft=4;spacingRight=4;overflow=hidden;points=[[0,0.5],[1,0.5]];portConstraint=eastwest;rotatable=0;fillColor=default;" parent="9RPVtVGObRyJ0dVKUxy2-66" vertex="1">
          <mxGeometry y="90" width="250" height="30" as="geometry" />
        </mxCell>
        <mxCell id="9RPVtVGObRyJ0dVKUxy2-69" value="+ updated_at: Date" style="text;align=left;verticalAlign=middle;spacingLeft=4;spacingRight=4;overflow=hidden;points=[[0,0.5],[1,0.5]];portConstraint=eastwest;rotatable=0;fillColor=default;" parent="9RPVtVGObRyJ0dVKUxy2-66" vertex="1">
          <mxGeometry y="120" width="250" height="30" as="geometry" />
        </mxCell>
        <mxCell id="9RPVtVGObRyJ0dVKUxy2-70" value="+ number: number" style="text;strokeColor=none;fillColor=default;align=left;verticalAlign=middle;spacingLeft=4;spacingRight=4;overflow=hidden;points=[[0,0.5],[1,0.5]];portConstraint=eastwest;rotatable=0;" parent="9RPVtVGObRyJ0dVKUxy2-66" vertex="1">
          <mxGeometry y="150" width="250" height="30" as="geometry" />
        </mxCell>
        <mxCell id="9RPVtVGObRyJ0dVKUxy2-90" value="+ state: ApplicationAndReportStatesEnum" style="text;strokeColor=none;fillColor=default;align=left;verticalAlign=middle;spacingLeft=4;spacingRight=4;overflow=hidden;points=[[0,0.5],[1,0.5]];portConstraint=eastwest;rotatable=0;" parent="9RPVtVGObRyJ0dVKUxy2-66" vertex="1">
          <mxGeometry y="180" width="250" height="30" as="geometry" />
        </mxCell>
        <mxCell id="9RPVtVGObRyJ0dVKUxy2-71" value="+ adminComment?: string" style="text;strokeColor=none;fillColor=default;align=left;verticalAlign=middle;spacingLeft=4;spacingRight=4;overflow=hidden;points=[[0,0.5],[1,0.5]];portConstraint=eastwest;rotatable=0;" parent="9RPVtVGObRyJ0dVKUxy2-66" vertex="1">
          <mxGeometry y="210" width="250" height="30" as="geometry" />
        </mxCell>
        <mxCell id="9RPVtVGObRyJ0dVKUxy2-73" value="ShortApplicationAdmin" style="swimlane;fontStyle=0;childLayout=stackLayout;horizontal=1;startSize=30;horizontalStack=0;resizeParent=1;resizeParentMax=0;resizeLast=0;collapsible=1;marginBottom=0;" parent="1" vertex="1">
          <mxGeometry x="379" y="1510" width="250" height="270" as="geometry">
            <mxRectangle x="590" y="750" width="70" height="30" as="alternateBounds" />
          </mxGeometry>
        </mxCell>
        <mxCell id="9RPVtVGObRyJ0dVKUxy2-74" value="+ id" style="text;align=left;verticalAlign=middle;spacingLeft=4;spacingRight=4;overflow=hidden;points=[[0,0.5],[1,0.5]];portConstraint=eastwest;rotatable=0;fillColor=default;" parent="9RPVtVGObRyJ0dVKUxy2-73" vertex="1">
          <mxGeometry y="30" width="250" height="30" as="geometry" />
        </mxCell>
        <mxCell id="9RPVtVGObRyJ0dVKUxy2-81" value="+ license: License" style="text;align=left;verticalAlign=middle;spacingLeft=4;spacingRight=4;overflow=hidden;points=[[0,0.5],[1,0.5]];portConstraint=eastwest;rotatable=0;fillColor=default;" parent="9RPVtVGObRyJ0dVKUxy2-73" vertex="1">
          <mxGeometry y="60" width="250" height="30" as="geometry" />
        </mxCell>
        <mxCell id="9RPVtVGObRyJ0dVKUxy2-75" value="+ created_at: Date" style="text;align=left;verticalAlign=middle;spacingLeft=4;spacingRight=4;overflow=hidden;points=[[0,0.5],[1,0.5]];portConstraint=eastwest;rotatable=0;fillColor=default;" parent="9RPVtVGObRyJ0dVKUxy2-73" vertex="1">
          <mxGeometry y="90" width="250" height="30" as="geometry" />
        </mxCell>
        <mxCell id="9RPVtVGObRyJ0dVKUxy2-76" value="+ updated_at: Date" style="text;align=left;verticalAlign=middle;spacingLeft=4;spacingRight=4;overflow=hidden;points=[[0,0.5],[1,0.5]];portConstraint=eastwest;rotatable=0;fillColor=default;" parent="9RPVtVGObRyJ0dVKUxy2-73" vertex="1">
          <mxGeometry y="120" width="250" height="30" as="geometry" />
        </mxCell>
        <mxCell id="9RPVtVGObRyJ0dVKUxy2-93" value="+ number: number" style="text;strokeColor=none;fillColor=default;align=left;verticalAlign=middle;spacingLeft=4;spacingRight=4;overflow=hidden;points=[[0,0.5],[1,0.5]];portConstraint=eastwest;rotatable=0;" parent="9RPVtVGObRyJ0dVKUxy2-73" vertex="1">
          <mxGeometry y="150" width="250" height="30" as="geometry" />
        </mxCell>
        <mxCell id="9RPVtVGObRyJ0dVKUxy2-77" value="+ target: ApplicationTarget" style="text;strokeColor=none;fillColor=default;align=left;verticalAlign=middle;spacingLeft=4;spacingRight=4;overflow=hidden;points=[[0,0.5],[1,0.5]];portConstraint=eastwest;rotatable=0;" parent="9RPVtVGObRyJ0dVKUxy2-73" vertex="1">
          <mxGeometry y="180" width="250" height="30" as="geometry" />
        </mxCell>
        <mxCell id="9RPVtVGObRyJ0dVKUxy2-79" value="+ state: ApplicationStatesEnum" style="text;strokeColor=none;fillColor=default;align=left;verticalAlign=middle;spacingLeft=4;spacingRight=4;overflow=hidden;points=[[0,0.5],[1,0.5]];portConstraint=eastwest;rotatable=0;" parent="9RPVtVGObRyJ0dVKUxy2-73" vertex="1">
          <mxGeometry y="210" width="250" height="30" as="geometry" />
        </mxCell>
        <mxCell id="9RPVtVGObRyJ0dVKUxy2-80" value="+ adminComment?: string" style="text;strokeColor=none;fillColor=default;align=left;verticalAlign=middle;spacingLeft=4;spacingRight=4;overflow=hidden;points=[[0,0.5],[1,0.5]];portConstraint=eastwest;rotatable=0;" parent="9RPVtVGObRyJ0dVKUxy2-73" vertex="1">
          <mxGeometry y="240" width="250" height="30" as="geometry" />
        </mxCell>
        <mxCell id="9RPVtVGObRyJ0dVKUxy2-82" value="POST /user/file FormData =&amp;gt; { url: string }" style="text;html=1;strokeColor=none;fillColor=none;align=left;verticalAlign=middle;whiteSpace=wrap;rounded=0;" parent="1" vertex="1">
          <mxGeometry x="60" y="1120" width="290" height="30" as="geometry" />
        </mxCell>
        <mxCell id="9RPVtVGObRyJ0dVKUxy2-83" value="&lt;b&gt;Admin. Put Application + Report.&lt;br&gt;&amp;nbsp; &lt;/b&gt;- после изменения стейта пользователю должно придти уведомление в Discrord. Должно содержаться: номер заявки/отчета, новый статус (на русском), комментарий от Админа, если есть. Если это запрос, то Target тоже." style="text;html=1;strokeColor=none;fillColor=none;align=left;verticalAlign=top;whiteSpace=wrap;rounded=0;" parent="1" vertex="1">
          <mxGeometry x="467" y="2000" width="360" height="90" as="geometry" />
        </mxCell>
        <mxCell id="9RPVtVGObRyJ0dVKUxy2-84" value="&lt;b&gt;User. Requests Application + Report:&lt;br&gt;&amp;nbsp; &lt;/b&gt;- просто CR (create + read).&lt;br&gt;&amp;nbsp; - номер заявки/отчета - рандомное уникально число." style="text;html=1;strokeColor=none;fillColor=none;align=left;verticalAlign=top;whiteSpace=wrap;rounded=0;" parent="1" vertex="1">
          <mxGeometry x="80" y="2070" width="360" height="80" as="geometry" />
        </mxCell>
        <mxCell id="9RPVtVGObRyJ0dVKUxy2-85" value="DELETE /admin/applications/{id}" style="text;html=1;strokeColor=none;fillColor=none;align=left;verticalAlign=middle;whiteSpace=wrap;rounded=0;" parent="1" vertex="1">
          <mxGeometry x="550" y="860" width="290" height="30" as="geometry" />
        </mxCell>
        <mxCell id="9RPVtVGObRyJ0dVKUxy2-86" value="DELETE /user/reports/{id}" style="text;html=1;strokeColor=none;fillColor=none;align=left;verticalAlign=middle;whiteSpace=wrap;rounded=0;" parent="1" vertex="1">
          <mxGeometry x="550" y="1020" width="290" height="30" as="geometry" />
        </mxCell>
        <mxCell id="9RPVtVGObRyJ0dVKUxy2-94" value="&lt;b&gt;Admin. Put Report.&lt;br&gt;&amp;nbsp; &lt;/b&gt;- если статус изменился на CONFIRMED, то лицензия должна продлиться на месяц.&amp;nbsp;&lt;br&gt;&amp;nbsp; - если статус изменился на REJECTED, то лицензия должна удалиться&lt;br&gt;&amp;nbsp; - если изменился на REVISION - только уведомление пользователю.&lt;br&gt;&amp;nbsp; - если изменился на CHECK - пользователя не уведомлять об изменении статуса." style="text;html=1;strokeColor=none;fillColor=none;align=left;verticalAlign=top;whiteSpace=wrap;rounded=0;" parent="1" vertex="1">
          <mxGeometry x="467" y="2140" width="353" height="140" as="geometry" />
        </mxCell>
        <mxCell id="9RPVtVGObRyJ0dVKUxy2-95" value="DESIGN + FRONT" style="text;html=1;strokeColor=none;fillColor=none;align=center;verticalAlign=middle;whiteSpace=wrap;rounded=0;fontStyle=1;fontSize=14;" parent="1" vertex="1">
          <mxGeometry x="391" y="2330" width="148" height="30" as="geometry" />
        </mxCell>
        <mxCell id="9RPVtVGObRyJ0dVKUxy2-97" value="Вывести в дашборде BinanceId и дать возможность редактировать" style="text;html=1;strokeColor=none;fillColor=none;align=center;verticalAlign=middle;whiteSpace=wrap;rounded=0;" parent="1" vertex="1">
          <mxGeometry x="313.5" y="2378" width="303" height="30" as="geometry" />
        </mxCell>
        <mxCell id="9RPVtVGObRyJ0dVKUxy2-98" value="Вкладка с заявками. + создание и просмотр каждой отдельно" style="text;html=1;strokeColor=none;fillColor=none;align=center;verticalAlign=middle;whiteSpace=wrap;rounded=0;" parent="1" vertex="1">
          <mxGeometry x="317" y="2430" width="303" height="30" as="geometry" />
        </mxCell>
        <mxCell id="9RPVtVGObRyJ0dVKUxy2-99" value="Вкладка с отчетами. + создание и просмотр каждого отдельно" style="text;html=1;strokeColor=none;fillColor=none;align=center;verticalAlign=middle;whiteSpace=wrap;rounded=0;" parent="1" vertex="1">
          <mxGeometry x="317" y="2470" width="303" height="30" as="geometry" />
        </mxCell>
        <mxCell id="9RPVtVGObRyJ0dVKUxy2-100" value="Для админа в манагере доп вкладка.&lt;br&gt;&lt;br&gt;Там:&lt;br&gt;&amp;nbsp;Вкладка с отчетами. + редактирование/удаление и просмотр каждого отдельно&lt;br&gt;&amp;nbsp;Вкладка с запросами. + редактирование/удаление и просмотр каждого отдельно" style="text;html=1;strokeColor=none;fillColor=none;align=center;verticalAlign=middle;whiteSpace=wrap;rounded=0;" parent="1" vertex="1">
          <mxGeometry x="317" y="2540" width="303" height="130" as="geometry" />
        </mxCell>
        <mxCell id="caN0o0oOvSY8P445OsIc-1" value="ReportStatesEnum" style="swimlane;fontStyle=0;childLayout=stackLayout;horizontal=1;startSize=30;horizontalStack=0;resizeParent=1;resizeParentMax=0;resizeLast=0;collapsible=1;marginBottom=0;" vertex="1" parent="1">
          <mxGeometry x="550" y="70" width="200" height="150" as="geometry">
            <mxRectangle x="590" y="750" width="70" height="30" as="alternateBounds" />
          </mxGeometry>
        </mxCell>
        <mxCell id="caN0o0oOvSY8P445OsIc-2" value="+ PENDING" style="text;align=left;verticalAlign=middle;spacingLeft=4;spacingRight=4;overflow=hidden;points=[[0,0.5],[1,0.5]];portConstraint=eastwest;rotatable=0;fillColor=default;" vertex="1" parent="caN0o0oOvSY8P445OsIc-1">
          <mxGeometry y="30" width="200" height="30" as="geometry" />
        </mxCell>
        <mxCell id="caN0o0oOvSY8P445OsIc-5" value="+ PENDING" style="text;align=left;verticalAlign=middle;spacingLeft=4;spacingRight=4;overflow=hidden;points=[[0,0.5],[1,0.5]];portConstraint=eastwest;rotatable=0;fillColor=default;" vertex="1" parent="caN0o0oOvSY8P445OsIc-1">
          <mxGeometry y="60" width="200" height="30" as="geometry" />
        </mxCell>
        <mxCell id="caN0o0oOvSY8P445OsIc-3" value="+ CONFIRMED" style="text;align=left;verticalAlign=middle;spacingLeft=4;spacingRight=4;overflow=hidden;points=[[0,0.5],[1,0.5]];portConstraint=eastwest;rotatable=0;fillColor=default;" vertex="1" parent="caN0o0oOvSY8P445OsIc-1">
          <mxGeometry y="90" width="200" height="30" as="geometry" />
        </mxCell>
        <mxCell id="caN0o0oOvSY8P445OsIc-4" value="+ REJECTED" style="text;align=left;verticalAlign=middle;spacingLeft=4;spacingRight=4;overflow=hidden;points=[[0,0.5],[1,0.5]];portConstraint=eastwest;rotatable=0;fillColor=default;" vertex="1" parent="caN0o0oOvSY8P445OsIc-1">
          <mxGeometry y="120" width="200" height="30" as="geometry" />
        </mxCell>
        <mxCell id="caN0o0oOvSY8P445OsIc-7" value="DELETE /user/file FormData {url: string }&amp;nbsp;" style="text;html=1;strokeColor=none;fillColor=none;align=left;verticalAlign=middle;whiteSpace=wrap;rounded=0;" vertex="1" parent="1">
          <mxGeometry x="60" y="1150" width="290" height="30" as="geometry" />
        </mxCell>
        <mxCell id="caN0o0oOvSY8P445OsIc-8" value="PUT /user/reports/{id} {ReportPayload} =&amp;gt; Report" style="text;html=1;strokeColor=none;fillColor=none;align=left;verticalAlign=middle;whiteSpace=wrap;rounded=0;" vertex="1" parent="1">
          <mxGeometry x="60" y="1060" width="290" height="30" as="geometry" />
        </mxCell>
      </root>
    </mxGraphModel>
  </diagram>
</mxfile>
